<?xml version="1.0" standalone="no"?>
<!DOCTYPE svg PUBLIC "-//W3C//DTD SVG 20010904//EN"
 "http://www.w3.org/TR/2001/REC-SVG-20010904/DTD/svg10.dtd">
<svg version="1.0" xmlns="http://www.w3.org/2000/svg"
 width="280.000000pt" height="280.000000pt" viewBox="0 0 280.000000 280.000000"
 preserveAspectRatio="xMidYMid meet">
<metadata>
Created by potrace 1.11, written by Peter Selinger 2001-2013
</metadata>
<g transform="translate(0.000000,280.000000) scale(0.100000,-0.100000)"
fill="#000000" stroke="none">
<path d="M1500 2771 c0 -20 13 -26 53 -22 9 1 17 -2 17 -6 0 -5 -12 -9 -27 -9
-16 1 -28 -3 -28 -9 0 -5 6 -9 12 -9 7 1 10 -2 7 -7 -3 -5 -65 -9 -138 -9
-356 0 -660 -125 -912 -375 -256 -253 -384 -565 -384 -931 0 -352 132 -667
385 -919 194 -193 427 -314 698 -361 169 -29 480 -9 607 40 12 5 15 -3 15 -36
1 -52 11 -54 112 -14 353 141 644 435 782 791 199 512 80 1087 -304 1480 -182
186 -400 312 -650 375 -60 15 -140 31 -177 35 -64 6 -68 5 -68 -14z m102 -58
c-6 -2 -10 -8 -8 -12 3 -4 -1 -8 -9 -8 -11 0 -12 4 -4 14 6 7 17 13 23 12 7 0
6 -2 -2 -6z m-82 -977 c45 -24 88 -63 107 -100 21 -40 20 -117 -2 -150 -19
-28 -81 -65 -112 -67 -10 -1 0 -5 21 -10 94 -22 142 -83 134 -170 -7 -70 -44
-121 -115 -156 -75 -36 -212 -45 -293 -18 -86 28 -160 112 -160 180 l0 25 95
0 c76 0 95 -3 95 -14 0 -8 12 -24 26 -35 56 -44 154 -13 154 49 0 45 -40 70
-111 70 l-59 0 0 65 0 65 33 0 c50 0 106 19 117 40 18 34 11 67 -17 90 -38 30
-89 22 -124 -20 -25 -29 -28 -30 -113 -30 l-88 0 6 25 6 25 -105 0 -105 0 0
-270 0 -270 -90 0 -90 0 0 270 0 270 -110 0 -110 0 0 75 0 75 305 0 305 0 0
-67 0 -68 19 31 c24 39 75 79 127 99 54 21 207 15 254 -9z m595 -3 c106 -55
165 -171 165 -327 0 -146 -45 -258 -128 -317 -54 -38 -95 -49 -182 -49 -147 0
-243 76 -286 224 -25 90 -16 252 18 326 38 81 97 135 178 161 47 16 191 4 235
-18z m-201 -1575 c-3 -4 -11 -5 -19 -1 -21 7 -19 12 4 10 11 0 18 -5 15 -9z
m-77 -43 c0 -8 -4 -15 -9 -15 -10 0 -11 14 -1 23 9 10 10 9 10 -8z m38 -15
c-3 -5 -12 -10 -18 -10 -7 0 -6 4 3 10 19 12 23 12 15 0z"/>
<path d="M1928 1595 c-40 -22 -63 -93 -63 -195 0 -135 38 -210 108 -210 70 0
111 73 112 199 0 103 -10 145 -47 186 -33 39 -65 44 -110 20z"/>
</g>
</svg>
